# xmcd
#
# Track frame offsets:
#	150
#	12880
#	29509
#	48511
#	66580
#	94549
#	121236
#	139912
#	167471
#	184315
#	215923
#	234110
#
# Disc length: 3444 seconds
# Revision: 1
# Processed by: cddbd v1.5.2PL0 Copyright (c) Steve Scherf et al.
# Submitted via: dBpowerAMP V12.0
#
DISCID=a70d720c
DTITLE=Indigo Duck - Live @ The Perth Blues Club
DYEAR=2013
DGENRE=Blues
TTITLE0=Dumb Things
TTITLE1=Don't Let Me Be Misunderstood
TTITLE2=Thing's Have Changed
TTITLE3=Indigo Jam
TTITLE4=Walking Blues
TTITLE5=Goo Goo Muck
TTITLE6=Congo Square
TTITLE7=I'll Make Love To You Anytime
TTITLE8=Fumbling With The Blues
TTITLE9=Not Fade Away
TTITLE10=Paint It Black
TTITLE11=I'm Your Man
EXTD=
EXTT0=
EXTT1=
EXTT2=
EXTT3=
EXTT4=
EXTT5=
EXTT6=
EXTT7=
EXTT8=
EXTT9=
EXTT10=
EXTT11=
PLAYORDER=
